<mxfile host="app.diagrams.net" modified="2024-04-15T17:31:46.382Z" agent="Mozilla/5.0 (Macintosh; Intel Mac OS X 10.15; rv:124.0) Gecko/20100101 Firefox/124.0" version="24.2.5" etag="mJzibFbIS__-sI8pJcRX" type="github">
  <diagram name="Page-1" id="b39IYhRdIUyFz_mHhwfm">
    <mxGraphModel>
      <root>
        <mxCell id="0" />
        <mxCell id="1" parent="0" />
      </root>
    </mxGraphModel>
  </diagram>
</mxfile>
